<svg xmlns="http://www.w3.org/2000/svg" width="3" height="34" viewBox="0 0 3 34">
  <metadata><?xpacket begin="﻿" id="W5M0MpCehiHzreSzNTczkc9d"?>
<x:xmpmeta xmlns:x="adobe:ns:meta/" x:xmptk="Adobe XMP Core 5.6-c140 79.160451, 2017/05/06-01:08:21        ">
   <rdf:RDF xmlns:rdf="http://www.w3.org/1999/02/22-rdf-syntax-ns#">
      <rdf:Description rdf:about=""/>
   </rdf:RDF>
</x:xmpmeta>
                                                                                                    
                                                                                                    
                                                                                                    
                                                                                                    
                                                                                                    
                                                                                                    
                                                                                                    
                                                                                                    
                                                                                                    
                                                                                                    
                                                                                                    
                                                                                                    
                                                                                                    
                                                                                                    
                                                                                                    
                                                                                                    
                                                                                                    
                                                                                                    
                                                                                                    
                                                                                                    
                           
<?xpacket end="w"?></metadata>
<defs>
    <style>
      .cls-1 {
        fill: #737373;
        fill-rule: evenodd;
        opacity: 0.4;
      }
    </style>
  </defs>
  <path class="cls-1" d="M367,18.335a1.509,1.509,0,1,1-1.5-1.672A1.593,1.593,0,0,1,367,18.335Zm0,6.133a1.509,1.509,0,1,1-1.5-1.673A1.593,1.593,0,0,1,367,24.467Zm0,6.132a1.509,1.509,0,1,1-1.5-1.672A1.593,1.593,0,0,1,367,30.6Zm0,6.132a1.509,1.509,0,1,1-1.5-1.672A1.593,1.593,0,0,1,367,36.731Zm0,6.133a1.509,1.509,0,1,1-1.5-1.673A1.593,1.593,0,0,1,367,42.864ZM367,49a1.509,1.509,0,1,1-1.5-1.672A1.593,1.593,0,0,1,367,49Z" transform="translate(-364 -16.656)"/>
</svg>
